<svg xmlns="http://www.w3.org/2000/svg" width="1024" height="1024" viewBox="0 0 1024 1024">
  <defs>
    <linearGradient id="bg" x1="156" y1="112" x2="872" y2="912" gradientUnits="userSpaceOnUse">
      <stop offset="0" stop-color="#16332d" />
      <stop offset="1" stop-color="#0c8e68" />
    </linearGradient>
    <radialGradient
      id="glow"
      cx="0"
      cy="0"
      r="1"
      gradientUnits="userSpaceOnUse"
      gradientTransform="translate(300 252) rotate(30) scale(428 368)"
    >
      <stop offset="0" stop-color="#f4a86b" stop-opacity="0.42" />
      <stop offset="1" stop-color="#f4a86b" stop-opacity="0" />
    </radialGradient>
    <linearGradient id="bubble" x1="236" y1="246" x2="790" y2="704" gradientUnits="userSpaceOnUse">
      <stop offset="0" stop-color="#fffaf1" />
      <stop offset="1" stop-color="#f3e9d5" />
    </linearGradient>
    <linearGradient id="badge" x1="604" y1="552" x2="802" y2="732" gradientUnits="userSpaceOnUse">
      <stop offset="0" stop-color="#17c79b" />
      <stop offset="1" stop-color="#0b8e69" />
    </linearGradient>
  </defs>

  <rect width="1024" height="1024" rx="248" fill="url(#bg)" />
  <rect x="84" y="84" width="856" height="856" rx="214" fill="none" stroke="#ffffff" stroke-opacity="0.14" stroke-width="18" />
  <ellipse cx="304" cy="246" rx="388" ry="314" fill="url(#glow)" />

  <path
    d="M316 236h392c61 0 110 49 110 110v246c0 61-49 110-110 110H443l-126 111 30-111h-31c-61 0-110-49-110-110V346c0-61 49-110 110-110Z"
    fill="url(#bubble)"
  />

  <rect x="312" y="336" width="336" height="54" rx="27" fill="#16332d" />
  <rect x="312" y="437" width="264" height="54" rx="27" fill="#16332d" fill-opacity="0.92" />
  <rect x="312" y="538" width="364" height="54" rx="27" fill="#16332d" fill-opacity="0.84" />

  <circle cx="696" cy="614" r="118" fill="#0c8e68" fill-opacity="0.22" />
  <circle cx="676" cy="594" r="108" fill="url(#badge)" />
  <path
    d="M626 594l34 34 67-80"
    fill="none"
    stroke="#ffffff"
    stroke-linecap="round"
    stroke-linejoin="round"
    stroke-width="34"
  />

  <path
    d="M764 214l18 42 42 18-42 18-18 42-18-42-42-18 42-18 18-42Z"
    fill="#f4a86b"
  />
</svg>
